<?xml version="1.0" encoding="UTF-8" standalone="no"?><!DOCTYPE svg PUBLIC "-//W3C//DTD SVG 1.1//EN" "http://www.w3.org/Graphics/SVG/1.1/DTD/svg11.dtd"><svg width="100%" height="100%" viewBox="0 0 4413 4446" version="1.1" xmlns="http://www.w3.org/2000/svg" xmlns:xlink="http://www.w3.org/1999/xlink" xml:space="preserve" xmlns:serif="http://www.serif.com/" style="fill-rule:evenodd;clip-rule:evenodd;stroke-linejoin:round;stroke-miterlimit:1.41421;"><g id="Group"><g opacity="0.15"><path id="Fill-546" d="M129.325,3984.33c7.046,-6.9 18.425,-6.9 25.438,0c7.041,6.9 7.041,18.067 0,24.967c-7.013,6.9 -18.392,6.9 -25.438,0c-7.008,-6.9 -7.008,-18.067 0,-24.967" style="fill:#8b9dc2;"/><path id="Fill-548" d="M989.529,3596.5c7.009,-6.9 18.429,-6.9 25.438,0c7.046,6.9 7.046,18.067 0,24.967c-7.009,6.9 -18.429,6.9 -25.438,0c-7.046,-6.9 -7.046,-18.067 0,-24.967" style="fill:#8b9dc2;"/><path id="Fill-550" d="M966.196,4022.51c7.046,-6.9 18.425,-6.9 25.437,0c7.042,6.9 7.042,18.066 0,24.966c-7.012,6.9 -18.391,6.9 -25.437,0c-7.046,-6.9 -7.046,-18.066 0,-24.966" style="fill:#8b9dc2;"/><path id="Fill-552" d="M1257.83,4404.67c7.042,-6.9 18.425,-6.9 25.434,0c7.045,6.9 7.045,18.066 0,24.966c-7.009,6.9 -18.392,6.9 -25.434,0c-7.046,-6.9 -7.046,-18.066 0,-24.966" style="fill:#8b9dc2;"/><path id="Fill-554" d="M2049.27,3860.38c7.041,-6.9 18.425,-6.9 25.433,0c7.046,6.9 7.046,18.067 0,24.967c-7.008,6.9 -18.392,6.9 -25.433,0c-7.046,-6.9 -7.046,-18.067 0,-24.967" style="fill:#8b9dc2;"/><path id="Fill-558" d="M2386.01,4234.38c7.046,-6.9 18.43,-6.9 25.438,0c7.046,6.9 7.046,18.067 0,24.967c-7.008,6.9 -18.392,6.9 -25.438,0c-7.041,-6.9 -7.041,-18.067 0,-24.967" style="fill:#8b9dc2;"/><path id="Fill-560" d="M2495.4,3190.04c7.009,-6.9 18.425,-6.9 25.434,0c7.045,6.9 7.045,18.062 0,24.962c-7.009,6.904 -18.425,6.904 -25.434,0c-7.046,-6.9 -7.046,-18.062 0,-24.962" style="fill:#8b9dc2;"/><path id="Fill-562" d="M2150.41,2219.97c7.008,-6.9 18.429,-6.9 25.437,0c7.046,6.9 7.046,18.062 0,24.966c-7.008,6.9 -18.429,6.9 -25.437,0c-7.046,-6.904 -7.046,-18.066 0,-24.966" style="fill:#8b9dc2;"/><path id="Fill-564" d="M2013.94,2943.1c7.045,-6.9 18.429,-6.9 25.437,0c7.046,6.904 7.046,18.066 0,24.966c-7.008,6.9 -18.391,6.9 -25.437,0.001c-7.046,-6.901 -7.046,-18.063 0,-24.967" style="fill:#8b9dc2;"/><path id="Fill-566" d="M599.196,3768.53c7.041,-6.9 18.425,-6.9 25.433,0c7.046,6.9 7.046,18.067 0,24.967c-7.008,6.9 -18.391,6.9 -25.433,0c-7.046,-6.9 -7.046,-18.067 0,-24.967" style="fill:#8b9dc2;"/><path id="Fill-568" d="M1283.33,1039.32c7.046,-6.904 18.429,-6.904 25.438,0c7.046,6.9 7.046,18.062 0,24.962c-7.009,6.9 -18.392,6.9 -25.438,0c-7.046,-6.9 -7.046,-18.062 0,-24.962" style="fill:#8b9dc2;"/><path id="Fill-570" d="M1615.85,590.438c7.012,-6.9 18.429,-6.9 25.437,0c7.046,6.9 7.046,18.066 0,24.966c-7.008,6.9 -18.425,6.9 -25.437,0c-7.042,-6.9 -7.042,-18.067 0,-24.966" style="fill:#8b9dc2;"/><path id="Fill-606" d="M80.388,2702.56c7.045,-6.904 18.424,-6.904 25.437,0c7.046,6.9 7.046,18.063 0,24.963c-7.013,6.9 -18.392,6.9 -25.438,0c-7.045,-6.9 -7.045,-18.063 0.001,-24.963" style="fill:#8b9dc2;"/><path id="Fill-610" d="M473.992,2387.31c7.046,-6.9 18.425,-6.9 25.437,0c7.046,6.904 7.046,18.066 0,24.966c-7.012,6.9 -18.392,6.9 -25.437,0c-7.046,-6.9 -7.046,-18.062 0,-24.966" style="fill:#8b9dc2;"/><path id="Fill-612" d="M494.071,2674.83c7.008,-6.904 18.425,-6.904 25.437,0c7.042,6.9 7.042,18.063 0,24.962c-7.012,6.905 -18.429,6.905 -25.437,0c-7.046,-6.899 -7.046,-18.062 0,-24.962" style="fill:#8b9dc2;"/><path id="Fill-616" d="M791.329,2383.12c7.042,-6.9 18.425,-6.9 25.434,0c7.045,6.9 7.045,18.062 0,24.966c-7.009,6.9 -18.392,6.9 -25.434,0c-7.012,-6.904 -7.012,-18.066 0,-24.966" style="fill:#8b9dc2;"/><path id="Fill-618" d="M252.9,2186.05c7.046,-6.9 18.425,-6.9 25.438,0c7.041,6.9 7.041,18.067 0,24.967c-7.013,6.9 -18.392,6.9 -25.438,0c-7.046,-6.9 -7.046,-18.067 0,-24.967" style="fill:#8b9dc2;"/><path id="Fill-620" d="M1228.08,2528.03c7.042,-6.9 18.425,-6.9 25.433,0c7.046,6.9 7.046,18.067 0,24.967c-7.008,6.9 -18.391,6.9 -25.433,0c-7.046,-6.9 -7.046,-18.067 0,-24.967" style="fill:#8b9dc2;"/><path id="Fill-622" d="M1518.98,2116.31c7.012,-6.9 18.429,-6.9 25.438,0c7.045,6.899 7.045,18.062 -0.001,24.962c-7.008,6.904 -18.425,6.904 -25.437,0c-7.042,-6.9 -7.042,-18.062 0,-24.962" style="fill:#8b9dc2;"/><path id="Fill-626" d="M1536.97,2319.44c7.042,-6.9 18.425,-6.9 25.433,-0.001c7.046,6.9 7.046,18.067 0,24.967c-7.008,6.9 -18.391,6.9 -25.433,0c-7.046,-6.9 -7.046,-18.067 0,-24.966" style="fill:#8b9dc2;"/><path id="Fill-628" d="M338.163,1784.51c7.012,-6.9 18.429,-6.9 25.437,0c7.046,6.899 7.046,18.066 0,24.966c-7.008,6.9 -18.425,6.9 -25.438,0c-7.045,-6.9 -7.045,-18.066 0,-24.966" style="fill:#8b9dc2;"/><path id="Fill-630" d="M1552.65,964.125c7.042,-6.9 18.425,-6.9 25.433,0c7.046,6.9 7.046,18.067 0,24.967c-7.008,6.9 -18.391,6.9 -25.433,0c-7.046,-6.9 -7.046,-18.067 0,-24.967" style="fill:#8b9dc2;"/><path id="Fill-632" d="M2350.66,940.933c7.045,-6.9 18.425,-6.9 25.437,0c7.046,6.9 7.046,18.063 0,24.963c-7.012,6.904 -18.392,6.904 -25.438,0c-7.045,-6.9 -7.045,-18.063 0.001,-24.963" style="fill:#8b9dc2;"/><path id="Fill-634" d="M1469.85,198.733c7.046,-6.9 18.429,-6.9 25.438,0c7.045,6.9 7.045,18.067 0,24.967c-7.009,6.9 -18.392,6.9 -25.438,0c-7.046,-6.9 -7.046,-18.067 0,-24.967" style="fill:#8b9dc2;"/><path id="Fill-638" d="M428.596,550.838c7.012,-6.9 18.429,-6.9 25.437,0c7.046,6.9 7.046,18.066 0,24.966c-7.008,6.9 -18.425,6.9 -25.437,0c-7.042,-6.9 -7.042,-18.067 0,-24.966" style="fill:#8b9dc2;"/><path id="Fill-640" d="M617.192,809.596c7.046,-6.9 18.425,-6.9 25.437,0c7.042,6.9 7.042,18.067 0,24.966c-7.012,6.9 -18.391,6.9 -25.437,0c-7.046,-6.899 -7.046,-18.066 0,-24.966" style="fill:#8b9dc2;"/><path id="Fill-658" d="M309.258,199.446c7.042,-6.9 18.425,-6.9 25.434,0c7.046,6.9 7.046,18.066 0,24.966c-7.009,6.9 -18.392,6.9 -25.434,0c-7.046,-6.9 -7.046,-18.066 0,-24.966" style="fill:#8b9dc2;"/><path id="Fill-660" d="M11.746,109.658c7.008,-6.9 18.429,-6.9 25.437,0c7.046,6.9 7.046,18.067 0,24.967c-7.008,6.9 -18.429,6.9 -25.437,0c-7.046,-6.9 -7.046,-18.067 0,-24.967" style="fill:#8b9dc2;"/><path id="Fill-717" d="M165.046,1249.54c7.041,-6.9 18.425,-6.9 25.433,0c7.046,6.9 7.046,18.066 0,24.966c-7.008,6.9 -18.392,6.9 -25.433,0c-7.046,-6.9 -7.046,-18.066 0,-24.966" style="fill:#a0a8be;"/><path id="Fill-745" d="M275.963,652.508c4.233,-4.229 11.104,-4.229 15.337,0c4.233,4.229 4.233,11.096 0,15.325c-4.233,4.229 -11.104,4.229 -15.338,0c-4.233,-4.229 -4.233,-11.096 0,-15.325" style="fill:#9fa0cc;"/><path id="Fill-747" d="M2288.75,2096c4.233,-4.234 11.104,-4.234 15.337,0c4.234,4.229 4.234,11.096 0,15.325c-4.233,4.229 -11.104,4.229 -15.337,0c-4.233,-4.229 -4.233,-11.096 0,-15.325" style="fill:#9fa0cc;"/><path id="Fill-749" d="M2118.32,3135.05c4.233,-4.229 11.104,-4.229 15.337,0c4.234,4.229 4.234,11.096 0,15.325c-4.233,4.229 -11.104,4.229 -15.337,0c-4.233,-4.229 -4.233,-11.096 0,-15.325" style="fill:#9fa0cc;"/><path id="Fill-751" d="M1769.77,3056.27c4.233,-4.229 11.104,-4.229 15.337,0c4.234,4.229 4.234,11.095 0,15.325c-4.233,4.233 -11.104,4.233 -15.337,0c-4.233,-4.229 -4.233,-11.096 0,-15.325" style="fill:#9fa0cc;"/><path id="Fill-753" d="M2059.98,4255.96c4.233,-4.229 11.104,-4.229 15.338,0c4.233,4.234 4.233,11.1 0,15.329c-4.234,4.23 -11.105,4.23 -15.338,0.001c-4.233,-4.23 -4.233,-11.096 0,-15.33" style="fill:#9fa0cc;"/><path id="Fill-782" d="M111.021,4336.46c4.237,-4.229 11.108,-4.229 15.341,0c4.234,4.234 4.234,11.096 0.001,15.329c-4.234,4.23 -11.105,4.23 -15.342,0.001c-4.234,-4.234 -4.234,-11.096 0,-15.33" style="fill:#b3bec8;fill-opacity:0.576471;"/><path id="Fill-786" d="M891.588,3820.61c4.233,-4.233 11.108,-4.233 15.341,0c4.233,4.23 4.233,11.096 0,15.325c-4.233,4.23 -11.108,4.23 -15.341,0c-4.234,-4.229 -4.234,-11.095 0,-15.325" style="fill:#b3bec8;fill-opacity:0.576471;"/><path id="Fill-788" d="M275.963,3499.44c4.233,-4.23 11.104,-4.23 15.337,0c4.233,4.233 4.233,11.095 0,15.329c-4.233,4.229 -11.104,4.229 -15.338,0c-4.233,-4.234 -4.233,-11.096 0,-15.329" style="fill:#b3bec8;fill-opacity:0.576471;"/><path id="Fill-790" d="M1704.79,3698.35c4.233,-4.229 11.104,-4.229 15.337,0c4.233,4.229 4.233,11.096 0,15.325c-4.233,4.233 -11.104,4.233 -15.337,0c-4.238,-4.229 -4.238,-11.096 0,-15.325" style="fill:#b3bec8;fill-opacity:0.576471;"/><path id="Fill-792" d="M1404.47,3762.5c4.233,-4.229 11.104,-4.229 15.337,0c4.234,4.267 4.234,11.1 0,15.329c-4.233,4.229 -11.104,4.229 -15.337,0c-4.234,-4.229 -4.234,-11.062 0,-15.329" style="fill:#b3bec8;fill-opacity:0.576471;"/><path id="Fill-856" d="M3550.03,160.167c4.238,-4.23 11.108,-4.23 15.342,0c4.233,4.229 4.233,11.095 0,15.325c-4.234,4.229 -11.104,4.229 -15.342,0c-4.233,-4.23 -4.233,-11.096 0,-15.325" style="fill:#b3bec8;fill-opacity:0.576471;"/><path id="Fill-906" d="M1608.2,1977.48c4.238,-4.229 11.109,-4.229 15.342,0c4.233,4.229 4.233,11.096 0,15.325c-4.234,4.233 -11.104,4.233 -15.342,0c-4.233,-4.229 -4.233,-11.096 0,-15.325" style="fill:#b3bec8;fill-opacity:0.576471;"/><path id="Fill-908" d="M1653.38,1524.09c4.234,-4.229 11.104,-4.229 15.338,0c4.233,4.229 4.233,11.095 0,15.325c-4.234,4.229 -11.105,4.229 -15.338,0c-4.233,-4.23 -4.233,-11.096 0,-15.325" style="fill:#b3bec8;fill-opacity:0.576471;"/><path id="Fill-910" d="M1949.38,230.938c4.234,-4.23 11.105,-4.23 15.338,-0.001c4.233,4.23 4.233,11.096 0,15.325c-4.234,4.234 -11.104,4.234 -15.338,0c-4.233,-4.229 -4.233,-11.095 0,-15.325" style="fill:#b3bec8;fill-opacity:0.576471;"/><path id="Fill-932" d="M813.171,2958.76c4.233,-4.233 11.104,-4.233 15.337,0c4.234,4.23 4.234,11.096 0,15.325c-4.233,4.23 -11.104,4.23 -15.337,0.001c-4.238,-4.23 -4.238,-11.096 0,-15.326" style="fill:#b3bec8;fill-opacity:0.576471;"/><path id="Fill-934" d="M2118.32,2691.09c4.233,-4.229 11.104,-4.229 15.337,0c4.234,4.233 4.234,11.095 0,15.329c-4.233,4.229 -11.104,4.229 -15.337,0c-4.233,-4.234 -4.233,-11.096 0,-15.329" style="fill:#b3bec8;fill-opacity:0.576471;"/><path id="Fill-936" d="M1842.92,2626.62c4.233,-4.229 11.104,-4.229 15.341,0c4.234,4.233 4.234,11.096 0.001,15.329c-4.238,4.229 -11.109,4.229 -15.342,0c-4.233,-4.233 -4.233,-11.096 0,-15.329" style="fill:#b3bec8;fill-opacity:0.576471;"/><path id="Fill-938" d="M2260.2,454.854c4.233,-4.233 11.104,-4.233 15.337,0c4.238,4.229 4.238,11.096 0,15.325c-4.233,4.229 -11.104,4.229 -15.337,0c-4.233,-4.229 -4.233,-11.096 0,-15.325" style="fill:#b3bec8;fill-opacity:0.576471;"/><path id="Fill-940" d="M1975.48,606.1c4.234,-4.233 11.104,-4.233 15.338,0c4.233,4.229 4.233,11.096 0,15.325c-4.234,4.229 -11.104,4.229 -15.338,0c-4.233,-4.229 -4.233,-11.096 0,-15.325" style="fill:#b3bec8;fill-opacity:0.576471;"/><path id="Fill-952" d="M955.963,164.683c10.583,-10.575 27.762,-10.575 38.345,0c10.584,10.575 10.584,27.742 0,38.317c-10.583,10.575 -27.762,10.575 -38.345,0c-10.584,-10.575 -10.584,-27.742 0,-38.317" style="fill:#81b0d4;"/><path id="Fill-962" d="M138.067,1647.59c10.583,-10.579 27.762,-10.579 38.345,0c10.584,10.575 10.584,27.737 0,38.312c-10.583,10.579 -27.762,10.579 -38.345,0c-10.584,-10.575 -10.584,-27.737 0,-38.312" style="fill:#81b0d4;"/><path id="Fill-970" d="M1118.31,583.767c10.584,-10.575 27.759,-10.575 38.346,0c10.584,10.575 10.584,27.741 0,38.316c-10.587,10.575 -27.762,10.575 -38.346,0c-10.587,-10.575 -10.587,-27.741 0,-38.316" style="fill:#81b0d4;"/><path id="Fill-972" d="M1994.27,1348.48c10.583,-10.575 27.762,-10.575 38.308,0c10.621,10.575 10.621,27.738 0,38.317c-10.546,10.575 -27.725,10.575 -38.308,0c-10.588,-10.579 -10.588,-27.742 0,-38.317" style="fill:#81b0d4;"/><path id="Fill-974" d="M1969.68,1808.45c10.584,-10.575 27.763,-10.575 38.346,0c10.584,10.579 10.584,27.742 0,38.317c-10.583,10.575 -27.762,10.575 -38.346,0c-10.583,-10.575 -10.583,-27.738 0,-38.317" style="fill:#81b0d4;"/><path id="Fill-980" d="M1086.58,1414.9c10.588,-10.579 27.763,-10.579 38.346,0c10.588,10.575 10.588,27.738 0,38.313c-10.583,10.579 -27.758,10.579 -38.346,0c-10.583,-10.575 -10.583,-27.738 0,-38.313" style="fill:#81b0d4;"/><path id="Fill-982" d="M1248.88,4115.75c10.588,-10.575 27.763,-10.575 38.313,0c10.62,10.575 10.62,27.742 0,38.317c-10.55,10.575 -27.725,10.575 -38.313,0c-10.583,-10.575 -10.583,-27.742 0,-38.317" style="fill:#81b0d4;"/><path id="Fill-1000" d="M183.867,4142.84c10.583,-10.575 27.762,-10.575 38.312,0c10.617,10.579 10.617,27.741 0,38.316c-10.55,10.575 -27.729,10.575 -38.312,0c-10.584,-10.575 -10.584,-27.737 0,-38.316" style="fill:#81b0d4;"/><path id="Fill-1004" d="M568.592,3340.05c10.587,-10.579 27.762,-10.579 38.35,0c10.583,10.575 10.583,27.738 0,38.313c-10.588,10.579 -27.763,10.579 -38.35,-0.001c-10.584,-10.574 -10.584,-27.737 0,-38.312" style="fill:#81b0d4;"/><path id="Fill-1006" d="M2230.8,3710.23c10.587,-10.575 27.762,-10.575 38.346,0c10.587,10.575 10.587,27.738 0,38.317c-10.584,10.575 -27.759,10.575 -38.346,0c-10.583,-10.579 -10.583,-27.742 0,-38.317" style="fill:#81b0d4;"/><path id="Fill-1048" d="M4079.08,14.525c4.234,-4.233 11.109,-4.233 15.342,0c4.233,4.229 4.233,11.096 0,15.325c-4.233,4.229 -11.108,4.229 -15.342,0c-4.233,-4.229 -4.233,-11.096 0,-15.325" style="fill:#c3ccd9;"/><path id="Fill-1050" d="M3998.6,500.363c4.233,-4.23 11.104,-4.23 15.338,0c4.233,4.233 4.233,11.095 0,15.329c-4.234,4.196 -11.105,4.196 -15.338,0c-4.233,-4.234 -4.233,-11.096 0,-15.329" style="fill:#c3ccd9;"/><path id="Fill-1052" d="M4212.63,816.233c4.233,-4.229 11.104,-4.229 15.338,0c4.2,4.229 4.2,11.096 0,15.325c-4.234,4.234 -11.105,4.234 -15.338,0c-4.233,-4.229 -4.233,-11.096 0,-15.325" style="fill:#c3ccd9;"/><path id="Fill-1054" d="M3756.6,745.492c4.233,-4.229 11.104,-4.229 15.338,0c4.233,4.229 4.233,11.096 -0.001,15.325c-4.233,4.233 -11.104,4.233 -15.337,0c-4.233,-4.229 -4.233,-11.096 0,-15.325" style="fill:#c3ccd9;"/><path id="Fill-1056" d="M3381.46,1213.1c4.233,-4.229 11.104,-4.229 15.341,0c4.234,4.229 4.234,11.096 0,15.325c-4.237,4.233 -11.108,4.233 -15.341,0c-4.234,-4.229 -4.234,-11.096 0,-15.325" style="fill:#c3ccd9;"/><path id="Fill-1058" d="M3777.37,1611.81c4.233,-4.23 11.108,-4.23 15.341,-0.001c4.234,4.23 4.234,11.096 0.001,15.325c-4.234,4.234 -11.109,4.234 -15.342,0c-4.233,-4.229 -4.233,-11.095 0,-15.325" style="fill:#c3ccd9;"/><path id="Fill-1060" d="M3298.23,1944.14c4.234,-4.23 11.104,-4.23 15.338,0c4.233,4.233 4.233,11.095 0,15.329c-4.233,4.229 -11.104,4.229 -15.338,0c-4.233,-4.234 -4.233,-11.096 0,-15.329" style="fill:#c3ccd9;"/><path id="Fill-1062" d="M3461.02,2669.42c4.233,-4.229 11.104,-4.229 15.337,0c4.234,4.229 4.234,11.096 0,15.325c-4.233,4.233 -11.104,4.233 -15.337,0c-4.238,-4.229 -4.238,-11.096 0,-15.325" style="fill:#c3ccd9;"/><path id="Fill-1064" d="M3258.3,3204.72c4.233,-4.229 11.104,-4.229 15.337,0c4.2,4.233 4.2,11.095 0,15.329c-4.233,4.229 -11.104,4.229 -15.337,0c-4.233,-4.234 -4.233,-11.096 0,-15.329" style="fill:#c3ccd9;"/><path id="Fill-1066" d="M4005.24,3820.61c4.233,-4.233 11.104,-4.233 15.337,0c4.234,4.23 4.234,11.096 0,15.325c-4.233,4.23 -11.104,4.23 -15.337,0c-4.234,-4.229 -4.234,-11.095 0,-15.325" style="fill:#c3ccd9;"/><path id="Fill-1068" d="M3223.59,3966c4.233,-4.229 11.104,-4.229 15.337,0c4.2,4.229 4.2,11.096 0,15.325c-4.233,4.233 -11.104,4.233 -15.337,0c-4.234,-4.229 -4.234,-11.096 0,-15.325" style="fill:#c3ccd9;"/><path id="Fill-1070" d="M3561.94,4177.79c4.233,-4.23 11.104,-4.23 15.337,0c4.2,4.233 4.2,11.095 0,15.329c-4.233,4.229 -11.104,4.229 -15.337,0c-4.234,-4.234 -4.234,-11.096 0,-15.329" style="fill:#c3ccd9;"/><path id="Fill-1246" d="M1818.73,4406.29l-13.742,24.791l-13.258,-24.55l-24.604,-13.279l24.85,-13.733l13.742,-24.792l13.254,24.55l24.604,13.279l-24.846,13.734Z" style="fill:#bdcadc;"/><path id="Fill-1248" d="M2301.57,1245.45l-13.742,24.829l-13.291,-24.583l-24.567,-13.246l24.846,-13.733l13.741,-24.829l13.259,24.587l24.604,13.246l-24.85,13.729Z" style="fill:#bdcadc;"/><path id="Fill-1252" d="M2138.3,857.104l-13.746,24.792l-13.254,-24.55l-24.604,-13.279l24.846,-13.73l13.741,-24.795l13.259,24.55l24.604,13.283l-24.846,13.729Z" style="fill:#bdcadc;"/><path id="Fill-1258" d="M2450.35,773.242l-13.742,24.796l-13.291,-24.55l-24.571,-13.284l24.812,-13.696l13.742,-24.829l13.292,24.588l24.571,13.246l-24.813,13.729Z" style="fill:#bdcadc;"/><path id="Fill-1278" d="M1076.72,1795.2l-13.742,24.791l-13.291,-24.55l-24.567,-13.279l24.846,-13.733l13.708,-24.792l13.292,24.55l24.566,13.279l-24.812,13.734Z" style="fill:#bdcadc;"/><path id="Fill-1280" d="M1157.69,1973.38l-13.742,24.792l-13.292,-24.55l-24.571,-13.279l24.813,-13.73l13.741,-24.795l13.292,24.55l24.571,13.283l-24.813,13.729Z" style="fill:#bdcadc;"/><path id="Fill-1282" d="M1456.84,2207.65l-13.742,24.796l-13.292,-24.55l-24.571,-13.283l24.813,-13.729l13.742,-24.796l13.291,24.55l24.571,13.283l-24.812,13.729Z" style="fill:#bdcadc;"/><path id="Fill-1284" d="M1645.2,2555.22l-13.742,24.792l-13.292,-24.55l-24.57,-13.28l24.85,-13.729l13.704,-24.796l13.291,24.55l24.571,13.284l-24.812,13.729Z" style="fill:#bdcadc;"/><path id="Fill-1288" d="M1291.68,2914.52l-13.741,24.796l-13.259,-24.55l-24.604,-13.284l24.85,-13.696l13.742,-24.825l13.254,24.55l24.604,13.28l-24.846,13.729Z" style="fill:#bdcadc;"/><path id="Fill-1290" d="M954.471,2861l-13.742,24.796l-13.291,-24.55l-24.571,-13.284l24.846,-13.695l13.708,-24.825l13.292,24.55l24.57,13.279l-24.812,13.729Z" style="fill:#bdcadc;"/><path id="Fill-1292" d="M893.621,3107.9l-13.742,24.792l-13.254,-24.55l-24.604,-13.279l24.846,-13.729l13.741,-24.796l13.259,24.55l24.604,13.283l-24.85,13.729Z" style="fill:#bdcadc;"/><path id="Fill-1294" d="M1420.24,3244.9l-13.742,24.829l-13.292,-24.588l-24.571,-13.245l24.813,-13.729l13.742,-24.83l13.291,24.588l24.571,13.246l-24.812,13.729Z" style="fill:#bdcadc;"/><path id="Fill-1298" d="M1647.7,3231.42l-13.741,24.796l-13.292,-24.55l-24.571,-13.284l24.85,-13.729l13.742,-24.796l13.254,24.55l24.604,13.284l-24.846,13.729Z" style="fill:#bdcadc;"/><path id="Fill-1302" d="M826.029,1221.65l-13.741,24.796l-13.292,-24.55l-24.567,-13.283l24.809,-13.696l13.745,-24.83l13.288,24.551l24.571,13.283l-24.813,13.729Z" style="fill:#bdcadc;"/><path id="Fill-1304" d="M724.638,1155.23l-13.742,24.792l-13.292,-24.55l-24.571,-13.279l24.813,-13.7l13.742,-24.825l13.291,24.583l24.571,13.246l-24.813,13.733Z" style="fill:#bdcadc;"/><path id="Fill-1310" d="M461.896,1317.51l-13.742,24.795l-13.291,-24.55l-24.571,-13.245l24.846,-13.734l13.708,-24.829l13.292,24.588l24.57,13.245l-24.812,13.73Z" style="fill:#bdcadc;"/><path id="Fill-1482" d="M4262,952.967l-13.742,24.791l-13.291,-24.55l-24.571,-13.279l24.85,-13.696l13.708,-24.829l13.288,24.55l24.57,13.283l-24.812,13.73Z" style="fill:#bdcadc;"/><path id="Fill-1484" d="M4019.66,792.613l-13.746,24.791l-13.288,-24.55l-24.571,-13.279l24.813,-13.733l13.742,-24.792l13.291,24.55l24.567,13.279l-24.808,13.733Z" style="fill:#bdcadc;"/><path id="Fill-1486" d="M4057.87,407.65l-13.742,24.792l-13.254,-24.55l-24.604,-13.279l24.846,-13.696l13.741,-24.829l13.255,24.55l24.57,13.279l-24.812,13.733Z" style="fill:#bdcadc;"/><path id="Fill-1488" d="M4369.17,369.467l-13.742,24.796l-13.292,-24.551l-24.57,-13.283l24.812,-13.696l13.742,-24.825l13.291,24.55l24.571,13.279l-24.812,13.73Z" style="fill:#bdcadc;"/><path id="Fill-1492" d="M3017.14,429.321l-13.742,24.792l-13.292,-24.551l-24.571,-13.279l24.813,-13.695l13.742,-24.83l13.291,24.55l24.571,13.284l-24.812,13.729Z" style="fill:#bdcadc;"/><path id="Fill-1494" d="M2821.37,301l-13.746,24.792l-13.288,-24.55l-24.57,-13.279l24.812,-13.7l13.742,-24.825l13.291,24.55l24.567,13.279l-24.808,13.733Z" style="fill:#bdcadc;"/><path id="Fill-1496" d="M2725.92,521.396l-13.742,24.792l-13.292,-24.55l-24.57,-13.284l24.812,-13.696l13.742,-24.825l13.291,24.584l24.571,13.246l-24.812,13.733Z" style="fill:#bdcadc;"/><path id="Fill-1498" d="M3017.14,1387.86l-13.742,24.791l-13.292,-24.55l-24.571,-13.279l24.813,-13.696l13.742,-24.829l13.291,24.55l24.571,13.283l-24.812,13.729Z" style="fill:#bdcadc;"/><path id="Fill-1500" d="M2968.3,1707.22l-13.741,24.792l-13.292,-24.55l-24.567,-13.28l24.846,-13.695l13.708,-24.83l13.288,24.55l24.571,13.28l-24.813,13.733Z" style="fill:#bdcadc;"/><path id="Fill-1502" d="M2802.33,2034.16l-13.741,24.791l-13.255,-24.55l-24.604,-13.279l24.846,-13.733l13.708,-24.792l13.288,24.55l24.571,13.279l-24.813,13.733Z" style="fill:#bdcadc;"/><path id="Fill-1504" d="M3077.04,2034.16l-13.742,24.791l-13.292,-24.55l-24.571,-13.279l24.85,-13.733l13.709,-24.792l13.287,24.55l24.571,13.279l-24.812,13.733Z" style="fill:#bdcadc;"/><path id="Fill-1506" d="M3279.34,1841l-13.742,24.792l-13.254,-24.55l-24.604,-13.284l24.845,-13.696l13.709,-24.825l13.291,24.55l24.567,13.28l-24.813,13.733Z" style="fill:#bdcadc;"/><path id="Fill-1508" d="M3942.35,2034.16l-13.746,24.791l-13.287,-24.55l-24.571,-13.279l24.845,-13.733l13.709,-24.792l13.292,24.55l24.566,13.279l-24.808,13.733Z" style="fill:#bdcadc;"/><path id="Fill-1512" d="M4330.92,2117.04l-13.742,24.795l-13.292,-24.55l-24.57,-13.283l24.85,-13.696l13.741,-24.825l13.254,24.55l24.605,13.279l-24.846,13.729Z" style="fill:#bdcadc;"/><path id="Fill-1540" d="M3443.87,2965.14l-13.746,24.791l-13.287,-24.55l-24.571,-13.279l24.812,-13.733l13.742,-24.792l13.292,24.55l24.57,13.279l-24.812,13.734Z" style="fill:#bdcadc;"/><path id="Fill-1544" d="M3787.59,3195.25l-13.742,24.829l-13.292,-24.587l-24.566,-13.246l24.812,-13.729l13.742,-24.829l13.291,24.587l24.567,13.246l-24.813,13.729Z" style="fill:#bdcadc;"/><path id="Fill-1548" d="M3610.37,3473.65l-13.742,24.792l-13.292,-24.55l-24.566,-13.279l24.812,-13.696l13.742,-24.829l13.287,24.55l24.571,13.283l-24.812,13.729Z" style="fill:#bdcadc;"/><path id="Fill-1550" d="M3391.68,3410.77l-13.741,24.792l-13.292,-24.55l-24.567,-13.28l24.813,-13.695l13.741,-24.83l13.292,24.55l24.567,13.284l-24.813,13.729Z" style="fill:#bdcadc;"/><path id="Fill-1572" d="M4150.69,4280.79l-13.742,24.796l-13.292,-24.551l-24.566,-13.283l24.812,-13.729l13.742,-24.792l13.292,24.55l24.566,13.28l-24.812,13.729Z" style="fill:#bdcadc;"/><path id="Fill-1574" d="M4112.47,4048.38l-13.742,24.796l-13.292,-24.55l-24.57,-13.283l24.845,-13.729l13.709,-24.796l13.291,24.55l24.571,13.283l-24.812,13.729Z" style="fill:#bdcadc;"/><path id="Fill-1672" d="M4218.38,1266.57c7.046,-7.042 18.425,-7.042 25.438,0c7.041,7.037 7.041,18.412 -0.001,25.417c-7.012,7.037 -18.391,7.037 -25.437,0c-7.046,-7.005 -7.046,-18.38 0,-25.417" style="fill:#c6d5de;"/><path id="Fill-1674" d="M3507.82,597.042c7.012,-7.038 18.429,-7.038 25.437,0c7.046,7.037 7.046,18.412 0,25.416c-7.008,7.038 -18.425,7.038 -25.437,0c-7.042,-7.004 -7.042,-18.379 0,-25.416" style="fill:#c6d5de;"/><path id="Fill-1676" d="M3055.96,842.592c7.046,-7.038 18.429,-7.038 25.471,0c7.046,7.041 7.046,18.412 0,25.416c-7.042,7.042 -18.425,7.042 -25.471,0c-7.041,-7.004 -7.041,-18.375 0,-25.416" style="fill:#c6d5de;"/><path id="Fill-1678" d="M3788.39,1090.13c7.045,-7.042 18.425,-7.042 25.47,0c7.046,7.038 7.046,18.413 0,25.45c-7.045,7.004 -18.425,7.004 -25.47,0c-7.046,-7.037 -7.046,-18.412 0,-25.45" style="fill:#c6d5de;"/><path id="Fill-1680" d="M3445.13,1603.28c7.046,-7.042 18.429,-7.042 25.438,0c7.045,7.038 7.045,18.413 0,25.45c-7.009,7.004 -18.392,7.004 -25.438,0c-7.046,-7.037 -7.046,-18.412 0,-25.45" style="fill:#c6d5de;"/><path id="Fill-1682" d="M2350.66,1638.6c7.045,-7.042 18.425,-7.042 25.437,0c7.046,7.038 7.046,18.412 0,25.45c-7.012,7.038 -18.392,7.038 -25.438,0c-7.045,-7.038 -7.045,-18.412 0.001,-25.45" style="fill:#c6d5de;"/><path id="Fill-1684" d="M2495.38,2614.4c7.046,-7.042 18.43,-7.042 25.475,0c7.042,7.037 7.042,18.412 0,25.417c-7.045,7.037 -18.429,7.037 -25.475,0c-7.041,-7.005 -7.041,-18.38 0,-25.417" style="fill:#c6d5de;"/><path id="Fill-1686" d="M2942.2,2490.93c7.008,-7.037 18.425,-7.037 25.437,0c7.042,7.042 7.042,18.413 0,25.417c-7.012,7.042 -18.429,7.042 -25.437,0c-7.046,-7.004 -7.046,-18.375 0,-25.417" style="fill:#c6d5de;"/><path id="Fill-1688" d="M3387.24,2259.53c7.046,-7.037 18.429,-7.037 25.471,0c7.045,7.005 7.045,18.413 0,25.417c-7.042,7.038 -18.425,7.038 -25.471,0c-7.046,-7.004 -7.046,-18.412 0,-25.417" style="fill:#c6d5de;"/><path id="Fill-1690" d="M4063.18,2449.25c7.042,-7.038 18.425,-7.038 25.471,0c7.046,7.004 7.046,18.412 0,25.416c-7.046,7.042 -18.429,7.042 -25.471,0c-7.046,-7.004 -7.046,-18.412 0,-25.416" style="fill:#c6d5de;"/><path id="Fill-1720" d="M4362.92,3217.08c7.045,-7.037 18.429,-7.037 25.437,0c7.046,7.042 7.046,18.413 0,25.417c-7.008,7.042 -18.392,7.042 -25.437,0c-7.042,-7.004 -7.042,-18.375 0,-25.417" style="fill:#c6d5de;"/><path id="Fill-1722" d="M4343.04,3548.76c7.046,-7.042 18.429,-7.042 25.475,0c7.041,7.037 7.041,18.412 0,25.416c-7.046,7.038 -18.43,7.038 -25.475,0c-7.042,-7.004 -7.042,-18.379 0,-25.416" style="fill:#c6d5de;"/><path id="Fill-1724" d="M2924.18,3788.72c7.046,-7.037 18.43,-7.037 25.471,0c7.046,7.004 7.046,18.413 0,25.417c-7.041,7.041 -18.425,7.041 -25.471,0c-7.041,-7.004 -7.041,-18.413 0,-25.417" style="fill:#c6d5de;"/><path id="Fill-1726" d="M2778.14,3505.23c7.041,-7.037 18.425,-7.037 25.433,0c7.046,7.004 7.046,18.413 0,25.417c-7.008,7.042 -18.392,7.042 -25.433,0c-7.046,-7.004 -7.046,-18.413 0,-25.417" style="fill:#c6d5de;"/><path id="Fill-1728" d="M2586.65,3804.71c7.042,-7.037 18.425,-7.037 25.471,0c7.046,7.038 7.046,18.413 0,25.417c-7.046,7.038 -18.429,7.038 -25.471,0c-7.046,-7.004 -7.046,-18.379 0,-25.417" style="fill:#c6d5de;"/><path id="Fill-1730" d="M2942.2,4331.38c7.008,-7.038 18.425,-7.038 25.437,0c7.042,7.042 7.042,18.413 0,25.454c-7.012,7.038 -18.429,7.038 -25.437,0c-7.046,-7.042 -7.046,-18.412 0,-25.454" style="fill:#c6d5de;"/><path id="Fill-1736" d="M3622.47,4407.46c7.008,-7.037 18.425,-7.037 25.433,0c7.046,7.038 7.046,18.413 0,25.417c-7.008,7.042 -18.425,7.042 -25.433,0c-7.046,-7.004 -7.046,-18.379 0,-25.417" style="fill:#c6d5de;"/><path id="Fill-1794" d="M3313.33,4352.38c11,-10.992 28.871,-10.992 39.875,0c11,10.992 11,28.85 0,39.842c-11.004,10.991 -28.875,10.991 -39.875,0c-11,-10.992 -11,-28.85 0,-39.842" style="fill:#c6d5de;"/><path id="Fill-1796" d="M2826.25,3203.3c11,-10.992 28.871,-10.992 39.871,0c11,10.992 11,28.85 0,39.842c-11,10.991 -28.871,10.991 -39.871,0c-11.004,-10.992 -11.004,-28.85 0,-39.842" style="fill:#c6d5de;"/><path id="Fill-1798" d="M3183.94,2582c11,-10.991 28.87,-10.991 39.875,0c11,10.992 11,28.85 0,39.842c-11.004,10.992 -28.875,10.992 -39.875,0c-11,-10.992 -11,-28.85 0,-39.842" style="fill:#c6d5de;"/><path id="Fill-1800" d="M4155.57,2848.35c11.004,-10.992 28.875,-10.992 39.875,0c11,10.992 11,28.85 0,39.842c-11,11.029 -28.871,11.029 -39.875,0c-11,-10.992 -11,-28.85 0,-39.842" style="fill:#c6d5de;"/><path id="Fill-1814" d="M3410.54,721.129c11,-10.991 28.87,-10.991 39.87,0c11.005,10.992 11.005,28.85 0.001,39.842c-11.001,10.992 -28.871,10.992 -39.871,0c-11,-10.992 -11,-28.85 0,-39.842" style="fill:#c6d5de;"/><path id="Fill-1824" d="M3155.75,13.1c11,-10.992 28.871,-10.992 39.875,0c11,10.992 11,28.85 0,39.842c-11.004,10.996 -28.875,10.996 -39.875,0c-11,-10.992 -11,-28.85 0,-39.842" style="fill:#c6d5de;"/></g></g></svg>