<?xml version="1.0" encoding="UTF-8" standalone="no"?><!DOCTYPE svg PUBLIC "-//W3C//DTD SVG 1.1//EN" "http://www.w3.org/Graphics/SVG/1.1/DTD/svg11.dtd"><svg width="100%" height="100%" viewBox="0 0 2496 1627" version="1.1" xmlns="http://www.w3.org/2000/svg" xmlns:xlink="http://www.w3.org/1999/xlink" xml:space="preserve" xmlns:serif="http://www.serif.com/" style="fill-rule:evenodd;clip-rule:evenodd;"><rect id="Artboard1" x="0" y="0" width="2495.15" height="1626.94" style="fill:none;"/><clipPath id="_clip1"><rect x="0" y="0" width="2495.15" height="1626.94"/></clipPath><g clip-path="url(#_clip1)"><path d="M1570.36,1864.63l-173.204,100m-86.604,50l-86.605,50m1961.19,-1132.29l-1528.17,882.292m-406.829,95.354l-173.204,100m-86.604,50l-86.6,50m2220.99,-1282.29l-1787.98,1032.29m-31.55,-121.308l-173.204,100m-86.604,50l-86.6,50m2105.52,-1215.63l-1672.51,965.625m-118.154,-71.309l-173.204,100m-86.604,50l-86.6,50m2076.65,-1198.96l-1643.64,948.958m-349.091,62.021l-173.205,100m-86.604,50l-86.604,50m2278.73,-1315.63l-1845.72,1065.63m-406.825,95.354l-173.205,100m-86.604,50l-86.6,50m2538.53,-1465.63l-2105.53,1215.63m520.545,-440.062l-173.208,100m-86.6,50l-86.604,50m1870.98,-1080.2l-1437.96,830.208m-322.904,-92.625l-173.204,100m-86.604,50l-86.604,50m1989.29,-1146.11l-1553.43,896.875m-207.596,-22.071l-173.208,100m-86.6,50l-86.604,50m2047.03,-1179.45l-1611.17,930.208m-1.092,277.279l-173.204,100m-86.604,50l-86.6,50m2076.65,-1198.96l-1643.64,948.958m-455.492,-155.6l-173.204,100m-86.604,50l-86.605,50m2264.3,-1307.3l-1831.28,1057.29m-17.113,-129.642l-173.208,100m-86.6,50l-86.604,50m2134.39,-1232.29l-1701.38,982.291m-175.883,-37.979l-173.208,100m-86.6,50l-86.604,50m2163.26,-1248.96l-1730.25,998.958m-233.621,-4.646l-173.204,100m-86.604,50l-86.6,50m2249.86,-1298.96l-1816.85,1048.96m-493.429,145.359l-173.207,100m-86.602,50l-86.603,50m2596.27,-1498.96l-2163.26,1248.96m83.921,-187.979l-173.204,100m-86.603,50l-86.603,50m2365.33,-1365.63l-1932.32,1115.63m274.125,-300.2l-182.225,105.208m-91.112,52.604l-91.113,52.604m1961.18,-1132.29l-1506.52,869.791" style="fill:url(#_Linear2);fill-rule:nonzero;stroke:url(#_Linear3);stroke-width:4.17px;"/><g><path d="M1931.74,167.319l-269.502,154.894l-13.555,126.505l62.509,-34.471" style="fill:none;stroke:url(#_Linear4);stroke-width:3.7px;"/><path d="M1592.4,260.362l339.34,-93.043l-97.605,307.15l-241.735,-214.107Z" style="fill:none;stroke:url(#_Linear5);stroke-width:3.7px;"/></g><g><path d="M1204.02,468.221l-580.752,333.776l-29.202,272.614l134.701,-74.29" style="fill:url(#_Linear6);fill-rule:nonzero;"/><path d="M1204.02,468.221l-547.647,363.1l-62.307,243.29l134.701,-74.29" style="fill:url(#_Linear7);fill-rule:nonzero;"/><path d="M993.699,1130.1l210.325,-661.876l-547.647,363.1l337.322,298.776Z" style="fill:url(#_Linear8);fill-rule:nonzero;"/><path d="M1204.02,468.221l-731.238,200.494l150.486,133.282l580.752,-333.776Z" style="fill:url(#_Linear9);fill-rule:nonzero;"/></g><g><path d="M2300.31,578.794l-237.841,136.697l-11.962,111.643l55.165,-30.421" style="fill:none;stroke:url(#_Linear10);stroke-width:3.26px;"/><path d="M2000.84,660.907l299.474,-82.113l-86.139,271.067l-213.335,-188.954Z" style="fill:none;stroke:url(#_Linear11);stroke-width:3.26px;"/></g><g><path d="M2251,1142.11l-178.176,102.405l-8.961,83.636l41.326,-22.79" style="fill:none;stroke:url(#_Linear12);stroke-width:2.45px;"/><path d="M2026.65,1203.62l224.347,-61.514l-64.53,203.066l-159.817,-141.552Z" style="fill:none;stroke:url(#_Linear13);stroke-width:2.45px;"/></g><g><path d="M1768.48,786.809l-311.077,178.79l-15.645,146.02l72.152,-39.789" style="fill:none;stroke:url(#_Linear14);stroke-width:4.27px;"/><path d="M1376.79,894.207l391.688,-107.398l-112.662,354.534l-279.026,-247.136Z" style="fill:none;stroke:url(#_Linear15);stroke-width:4.27px;"/></g></g><defs><linearGradient id="_Linear2" x1="0" y1="0" x2="1" y2="0" gradientUnits="userSpaceOnUse" gradientTransform="matrix(3229.48,-1894.98,1894.98,3229.48,-84.8307,1593.11)"><stop offset="0" style="stop-color:#702963;stop-opacity:1"/><stop offset="1" style="stop-color:#fff;stop-opacity:1"/></linearGradient><linearGradient id="_Linear3" x1="0" y1="0" x2="1" y2="0" gradientUnits="userSpaceOnUse" gradientTransform="matrix(2792.65,-1894.98,1894.98,2792.65,-110.17,1626.14)"><stop offset="0" style="stop-color:#702963;stop-opacity:0.294118"/><stop offset="1" style="stop-color:#fff;stop-opacity:0.294118"/></linearGradient><linearGradient id="_Linear4" x1="0" y1="0" x2="1" y2="0" gradientUnits="userSpaceOnUse" gradientTransform="matrix(-33.0172,308.187,-308.187,-33.0172,1806.72,153.927)"><stop offset="0" style="stop-color:#9b508d;stop-opacity:0.737255"/><stop offset="1" style="stop-color:#702963;stop-opacity:1"/></linearGradient><linearGradient id="_Linear5" x1="0" y1="0" x2="1" y2="0" gradientUnits="userSpaceOnUse" gradientTransform="matrix(-33.6387,314.002,-314.002,-33.6387,1768.92,149.876)"><stop offset="0" style="stop-color:#935988;stop-opacity:0.67451"/><stop offset="1" style="stop-color:#702963;stop-opacity:1"/></linearGradient><linearGradient id="_Linear6" x1="0" y1="0" x2="1" y2="0" gradientUnits="userSpaceOnUse" gradientTransform="matrix(-620.019,60.3706,-60.3706,-620.019,903.176,999.411)"><stop offset="0" style="stop-color:#702963;stop-opacity:0.909804"/><stop offset="1" style="stop-color:#9d5990;stop-opacity:1"/></linearGradient><linearGradient id="_Linear7" x1="0" y1="0" x2="1" y2="0" gradientUnits="userSpaceOnUse" gradientTransform="matrix(-507.895,624.797,-624.797,-507.895,1468.16,688.186)"><stop offset="0" style="stop-color:#702963;stop-opacity:0.909804"/><stop offset="1" style="stop-color:#702963;stop-opacity:0.74902"/></linearGradient><linearGradient id="_Linear8" x1="0" y1="0" x2="1" y2="0" gradientUnits="userSpaceOnUse" gradientTransform="matrix(1161.54,6.46461,-6.46461,1161.54,708.559,755.516)"><stop offset="0" style="stop-color:#702963;stop-opacity:0.909804"/><stop offset="1" style="stop-color:#896583;stop-opacity:1"/></linearGradient><linearGradient id="_Linear9" x1="0" y1="0" x2="1" y2="0" gradientUnits="userSpaceOnUse" gradientTransform="matrix(98.0068,459.882,-459.882,98.0068,770.118,515.754)"><stop offset="0" style="stop-color:#702963;stop-opacity:0.909804"/><stop offset="1" style="stop-color:#702963;stop-opacity:0.862745"/></linearGradient><linearGradient id="_Linear10" x1="0" y1="0" x2="1" y2="0" gradientUnits="userSpaceOnUse" gradientTransform="matrix(-29.1383,271.981,-271.981,-29.1383,2189.98,566.975)"><stop offset="0" style="stop-color:#9b508d;stop-opacity:0.737255"/><stop offset="1" style="stop-color:#702963;stop-opacity:1"/></linearGradient><linearGradient id="_Linear11" x1="0" y1="0" x2="1" y2="0" gradientUnits="userSpaceOnUse" gradientTransform="matrix(-29.6868,277.113,-277.113,-29.6868,2156.62,563.4)"><stop offset="0" style="stop-color:#935988;stop-opacity:0.67451"/><stop offset="1" style="stop-color:#702963;stop-opacity:1"/></linearGradient><linearGradient id="_Linear12" x1="0" y1="0" x2="1" y2="0" gradientUnits="userSpaceOnUse" gradientTransform="matrix(-21.8286,203.751,-203.751,-21.8286,2168.35,1133.25)"><stop offset="0" style="stop-color:#9b508d;stop-opacity:0.737255"/><stop offset="1" style="stop-color:#702963;stop-opacity:1"/></linearGradient><linearGradient id="_Linear13" x1="0" y1="0" x2="1" y2="0" gradientUnits="userSpaceOnUse" gradientTransform="matrix(-22.2395,207.596,-207.596,-22.2395,2143.36,1130.57)"><stop offset="0" style="stop-color:#935988;stop-opacity:0.67451"/><stop offset="1" style="stop-color:#702963;stop-opacity:1"/></linearGradient><linearGradient id="_Linear14" x1="0" y1="0" x2="1" y2="0" gradientUnits="userSpaceOnUse" gradientTransform="matrix(-38.1107,355.729,-355.729,-38.1107,1624.18,771.352)"><stop offset="0" style="stop-color:#9b508d;stop-opacity:0.737255"/><stop offset="1" style="stop-color:#702963;stop-opacity:1"/></linearGradient><linearGradient id="_Linear15" x1="0" y1="0" x2="1" y2="0" gradientUnits="userSpaceOnUse" gradientTransform="matrix(-38.828,362.442,-362.442,-38.828,1580.55,766.676)"><stop offset="0" style="stop-color:#935988;stop-opacity:0.67451"/><stop offset="1" style="stop-color:#702963;stop-opacity:1"/></linearGradient></defs></svg>