<?xml version="1.0" encoding="UTF-8" standalone="no"?><!DOCTYPE svg PUBLIC "-//W3C//DTD SVG 1.1//EN" "http://www.w3.org/Graphics/SVG/1.1/DTD/svg11.dtd"><svg width="100%" height="100%" viewBox="0 0 1126 807" version="1.1" xmlns="http://www.w3.org/2000/svg" xmlns:xlink="http://www.w3.org/1999/xlink" xml:space="preserve" xmlns:serif="http://www.serif.com/" style="fill-rule:evenodd;clip-rule:evenodd;stroke-linejoin:round;stroke-miterlimit:1.41421;"><path d="M834.668,691.52c-1.16,0 -2.114,-0.955 -2.114,-2.115l0,-140.662c0,-1.16 0.954,-2.115 2.114,-2.115c1.16,0 2.115,0.955 2.115,2.115l0,140.662c0,1.16 -0.955,2.115 -2.115,2.115Z" style="fill:#231f20;fill-rule:nonzero;"/><path d="M1123.69,717.825l-1121.58,0c-1.152,-0.022 -2.093,-0.963 -2.115,-2.115c0,-1.16 0.955,-2.114 2.115,-2.114l1121.58,0c1.16,0 2.114,0.954 2.114,2.114c-0.022,1.152 -0.963,2.093 -2.114,2.115Z" style="fill:#d1d3d4;fill-rule:nonzero;"/><path d="M988.399,70.424c0,-16.689 -13.55,-30.238 -30.239,-30.238l-795.633,0c-16.689,0 -30.239,13.549 -30.239,30.238l0,545.943c0,16.689 13.55,30.239 30.239,30.239l795.633,0c16.689,0 30.239,-13.55 30.239,-30.239l0,-545.943Z" style="fill:#fff;"/><path d="M958.16,648.72l-795.675,0c-17.733,-0.023 -32.311,-14.62 -32.311,-32.353l0,-545.943c0,-17.732 14.578,-32.33 32.311,-32.353l795.675,0c17.74,0.023 32.33,14.613 32.353,32.353l0,545.943c-0.023,17.74 -14.613,32.33 -32.353,32.353Zm-795.675,-606.42c-15.413,0.023 -28.082,12.712 -28.082,28.124l0,545.943c0,15.413 12.669,28.101 28.082,28.124l795.675,0c15.428,0 28.124,-12.695 28.124,-28.124l0,-545.943c0,-15.428 -12.696,-28.124 -28.124,-28.124l-795.675,0Z" style="fill:#231f20;fill-rule:nonzero;"/><rect x="163.923" y="82.435" width="792.842" height="521.964" style="fill:#702963;"/><g><path d="M687.122,262.215l-107.514,-32.254c-1.505,-0.452 -3.11,-0.452 -4.616,0l-107.516,32.254c-3.396,1.019 -5.722,4.146 -5.722,7.692l0,118.267c0,15.383 6.227,31.13 18.509,46.803c9.38,11.97 22.357,23.991 38.57,35.727c27.237,19.716 54.058,31.81 55.186,32.315c1.044,0.468 2.162,0.702 3.281,0.702c1.119,0 2.238,-0.234 3.281,-0.702c1.128,-0.505 27.948,-12.599 55.185,-32.315c16.213,-11.736 29.19,-23.757 38.571,-35.727c12.281,-15.673 18.508,-31.42 18.508,-46.803l0,-118.267c0,-3.546 -2.325,-6.673 -5.723,-7.692Z" style="fill:none;stroke:#fff;stroke-width:4.17px;"/><path d="M657.545,290.347l-78.559,-23.568c-1.1,-0.33 -2.272,-0.33 -3.372,0l-78.56,23.568c-2.482,0.745 -4.182,3.029 -4.182,5.62l0,86.416c0,11.24 4.551,22.746 13.525,34.198c6.853,8.746 16.336,17.529 28.182,26.105c19.902,14.406 39.499,23.243 40.324,23.612c0.762,0.342 1.579,0.513 2.397,0.513c0.818,0 1.635,-0.171 2.397,-0.513c0.825,-0.369 20.421,-9.206 40.323,-23.612c11.847,-8.576 21.328,-17.359 28.183,-26.105c8.973,-11.452 13.523,-22.958 13.523,-34.198l0,-86.416c0,-2.591 -1.699,-4.875 -4.181,-5.62Z" style="fill-opacity:0;fill-rule:nonzero;stroke:#fff;stroke-width:4.17px;"/><g><path d="M571.88,356.199c-5.27,-2.649 -8.89,-8.106 -8.89,-14.402c0,-8.891 7.218,-16.109 16.109,-16.109c8.89,0 16.108,7.218 16.108,16.109c0,6.296 -3.619,11.753 -8.889,14.402l11.22,52.992l-36.879,0l11.221,-52.992Z" style="fill:#702963;stroke:#f2f2f2;stroke-width:4.17px;"/></g></g><path d="M687.705,734.403l-254.765,0l28.8,-87.797l197.206,0l28.759,87.797Z" style="fill:#fff;fill-rule:nonzero;"/><path d="M687.705,736.602l-254.765,0c-0.707,-0.006 -1.369,-0.353 -1.776,-0.93c-0.393,-0.568 -0.503,-1.286 -0.296,-1.945l28.8,-87.798c0.305,-0.882 1.139,-1.478 2.072,-1.48l197.164,0c0.941,-0.025 1.79,0.582 2.072,1.48l28.801,87.798c0.252,0.654 0.139,1.395 -0.296,1.945c-0.398,0.588 -1.066,0.939 -1.776,0.93Zm-251.763,-4.229l248.76,0l-27.363,-83.653l-193.992,0l-27.405,83.653Z" style="fill:#231f20;fill-rule:nonzero;"/><path d="M721.115,746.752c0,-6.815 -5.533,-12.349 -12.349,-12.349l-296.887,0c-6.816,0 -12.35,5.534 -12.35,12.349l0,0.043c0,6.815 5.534,12.349 12.35,12.349l296.887,0c6.816,0 12.349,-5.534 12.349,-12.349l0,-0.043Z" style="fill:#fff;"/><path d="M708.766,761.301l-296.845,0c-0.261,0.014 -0.523,0.021 -0.784,0.021c-7.981,0 -14.549,-6.567 -14.549,-14.548c0,-7.981 6.568,-14.549 14.549,-14.549c0.261,0 0.523,0.007 0.784,0.021l296.845,0c0.261,-0.014 0.523,-0.021 0.784,-0.021c7.981,0 14.548,6.568 14.548,14.549c0,7.981 -6.567,14.548 -14.548,14.548c-0.261,0 -0.523,-0.007 -0.784,-0.021Zm-296.845,-24.699c-0.219,-0.014 -0.437,-0.021 -0.656,-0.021c-5.592,0 -10.193,4.601 -10.193,10.193c0,5.591 4.601,10.192 10.193,10.192c0.219,0 0.437,-0.007 0.656,-0.021l296.845,0c0.218,0.014 0.437,0.021 0.656,0.021c5.592,0 10.193,-4.601 10.193,-10.192c0,-5.592 -4.601,-10.193 -10.193,-10.193c-0.219,0 -0.438,0.007 -0.656,0.021l-296.845,0Z" style="fill:#231f20;fill-rule:nonzero;"/><path d="M440.595,711.143c4.229,-2.199 224.695,-42.292 224.695,-42.292l-7.232,-22.034l-197.206,0l-20.257,64.326Z" style="fill:#231f20;fill-rule:nonzero;"/><path d="M440.552,713.3c-0.498,0.006 -0.982,-0.175 -1.353,-0.508c-0.657,-0.559 -0.909,-1.466 -0.634,-2.284l20.3,-64.537c0.261,-0.876 1.073,-1.481 1.987,-1.48l197.206,0c0.911,0.013 1.715,0.612 1.988,1.48l7.232,22.034c0.248,0.551 0.248,1.183 0,1.734c-0.328,0.514 -0.844,0.878 -1.438,1.015c-60.477,11.038 -218.563,40.177 -224.146,42.292c-0.345,0.2 -0.744,0.288 -1.142,0.254Zm21.865,-64.58l-18.693,59.462c27.363,-6.09 180.332,-34.129 218.775,-41.192l-6.005,-18.27l-194.077,0Z" style="fill:#231f20;fill-rule:nonzero;"/><path d="M931.093,361.983c-0.668,0.014 -1.302,-0.303 -1.691,-0.846c-0.846,-1.1 -19.92,-27.236 -19.92,-92.619l0,-231.885c0.023,-1.151 0.963,-2.092 2.115,-2.115c1.16,0 2.114,0.955 2.114,2.115l0,231.885c0,63.988 18.863,89.828 19.074,90.082c0.673,0.934 0.485,2.251 -0.423,2.96c-0.364,0.277 -0.811,0.426 -1.269,0.423Z" style="fill:#231f20;fill-rule:nonzero;"/><rect x="75.237" y="488.604" width="40.727" height="316.046" style="fill:#fff;"/><path d="M116.006,806.722l-40.769,0c-1.16,0 -2.115,-0.955 -2.115,-2.115l0,-316.003c0,-1.16 0.955,-2.114 2.115,-2.114l40.769,0c1.16,0 2.115,0.954 2.115,2.114l0,316.003c0,1.16 -0.955,2.115 -2.115,2.115Zm-38.655,-4.229l36.54,0l0,-311.774l-36.54,0l0,311.774Z" style="fill:#231f20;fill-rule:nonzero;"/><rect x="324.8" y="488.604" width="40.727" height="316.046" style="fill:#fff;"/><path d="M365.569,806.722l-40.769,0c-1.16,0 -2.115,-0.955 -2.115,-2.115l0,-316.003c0,-1.16 0.955,-2.114 2.115,-2.114l40.769,0c1.16,0 2.115,0.954 2.115,2.114l0,316.003c0,1.16 -0.955,2.115 -2.115,2.115Zm-38.654,-4.229l36.54,0l0,-311.774l-36.54,0l0,311.774Z" style="fill:#231f20;fill-rule:nonzero;"/><rect x="35.567" y="512.287" width="361.509" height="108.52" style="fill:#fff;"/><path d="M397.076,512.287l0,108.521l-361.509,0l0,-108.521l361.509,0m0,-4.229l-361.509,0c-2.32,0 -4.229,1.909 -4.229,4.229l0,108.521c0,2.32 1.909,4.229 4.229,4.229l361.509,0c2.321,0 4.23,-1.909 4.23,-4.229l0,-108.521c0,-2.32 -1.909,-4.229 -4.23,-4.229Z" style="fill:#231f20;fill-rule:nonzero;"/><path d="M166.164,620.808l-55.444,0l-68.513,-108.478l55.444,0l68.513,108.478Z" style="fill:#d1d3d4;fill-rule:nonzero;"/><path d="M278.279,620.808l-55.444,0l-68.513,-108.478l55.445,0l68.512,108.478Z" style="fill:#d1d3d4;fill-rule:nonzero;"/><path d="M390.394,620.808l-55.444,0l-68.512,-108.478l55.444,0l68.512,108.478Z" style="fill:#d1d3d4;fill-rule:nonzero;"/><rect x="35.567" y="663.988" width="354.869" height="35.06" style="fill:#fff;"/><path d="M390.394,701.162l-354.827,0c-1.16,0 -2.114,-0.955 -2.114,-2.115l0,-35.059c0,-1.16 0.954,-2.115 2.114,-2.115l354.827,0c1.16,0 2.115,0.955 2.115,2.115l0,35.059c0,1.16 -0.955,2.115 -2.115,2.115Zm-352.712,-4.229l350.598,0l0,-30.831l-350.598,0l0,30.831Z" style="fill:#231f20;fill-rule:nonzero;"/><path d="M1088.29,769.294l-124.168,0l5.836,-19.75l1.1,-3.764l6.809,-22.922l3.341,-11.335l7.19,-24.317l1.48,-4.948l7.908,-26.729l0.762,-2.579l7.189,-24.318l4.06,-13.703l6.09,-20.553l6.936,-23.515l6.682,0l6.936,23.515l3.299,10.995l6.851,23.261l3.087,10.319l4.145,13.999l2.41,8.077l7.74,26.179l2.199,7.443l5.033,16.874l1.522,5.202l8.585,29.055l1.311,4.483l5.667,19.031Z" style="fill:#fff;fill-rule:nonzero;"/><path d="M1029.51,570.861l6.936,23.515l3.299,10.995l6.851,23.261l3.087,10.319l4.229,13.999l2.411,8.12l7.739,26.136l2.199,7.443l4.991,16.917l1.522,5.202l8.459,29.054l1.311,4.483l5.625,19.031l-124.042,0l5.836,-19.75l1.1,-3.764l6.809,-22.922l3.341,-11.334l7.19,-24.318l1.48,-4.948l7.908,-26.728l0.719,-2.622l7.19,-24.318l4.229,-13.703l6.09,-20.553l6.936,-23.515l6.682,0m0,-4.229l-6.682,0c-1.859,0.019 -3.498,1.261 -4.018,3.045l-6.978,23.472l-6.09,20.596l-4.018,13.703l-7.232,24.275l-0.761,2.58l-8.035,26.728l-1.48,4.991l-7.19,24.317l-3.341,11.292l-6.809,22.965l-1.1,3.764l-5.836,19.75c-0.372,1.277 -0.121,2.657 0.677,3.721c0.798,1.065 2.053,1.692 3.383,1.692l124.126,0c0.057,0.002 0.114,0.004 0.17,0.004c2.32,0 4.23,-1.91 4.23,-4.23c0,-0.402 -0.058,-0.801 -0.171,-1.187l-5.624,-19.032l-1.354,-4.482l-8.458,-29.097l-1.523,-5.16l-5.032,-16.916l-2.2,-7.401l-7.697,-26.179l-2.41,-8.12l-4.229,-13.956l-3.088,-10.362l-6.851,-23.218l-3.299,-11.038l-6.935,-23.472c-0.541,-1.86 -2.294,-3.122 -4.23,-3.045l0.085,0Z" style="fill:#231f20;fill-rule:nonzero;"/><path d="M1105.63,773.861c0,-2.52 -2.047,-4.567 -4.567,-4.567l-149.713,0c-2.521,0 -4.567,2.047 -4.567,4.567l0,8.459c0,2.521 2.046,4.567 4.567,4.567l149.713,0c2.52,0 4.567,-2.046 4.567,-4.567l0,-8.459Z" style="fill:#fff;"/><path d="M1101.06,789.002l-149.713,0c-3.666,0 -6.682,-3.017 -6.682,-6.682l0,-8.459c0,-3.665 3.016,-6.682 6.682,-6.682l149.713,0c3.665,0 6.682,3.017 6.682,6.682l0,8.459c0,3.665 -3.017,6.682 -6.682,6.682Zm-149.713,-17.636c-1.346,0 -2.453,1.107 -2.453,2.453l0,8.458c0,1.346 1.107,2.453 2.453,2.453l149.713,0c1.345,0 2.452,-1.107 2.452,-2.453l0,-8.458c0,-1.346 -1.107,-2.453 -2.452,-2.453l-149.713,0Z" style="fill:#231f20;fill-rule:nonzero;"/><path d="M1081.31,745.78l-110.254,0l6.809,-22.922l3.341,-11.335l89.997,0l1.522,5.202l8.585,29.055Z" style="fill:#d1d3d4;fill-rule:nonzero;"/><path d="M1063.97,687.206l-75.575,0l1.48,-4.948l7.908,-26.729l0.762,-2.579l55.275,0l2.41,8.077l7.74,26.179Z" style="fill:#d1d3d4;fill-rule:nonzero;"/><path d="M1046.59,628.632l-40.854,0l4.06,-13.703l6.09,-20.553l20.554,0l3.299,10.995l6.851,23.261Z" style="fill:#d1d3d4;fill-rule:nonzero;"/><path d="M861.989,40.735l149.67,178.81c0.602,0.68 1.468,1.071 2.376,1.071c1.741,0 3.172,-1.432 3.172,-3.172c0,-0.189 -0.017,-0.378 -0.05,-0.564c-3.393,-15.269 -8.382,-30.139 -14.887,-44.364l-121.419,-142.48l-15.394,1.903c-2.688,0.321 -4.734,2.626 -4.734,5.333c0,1.267 0.448,2.495 1.266,3.463Z" style="fill:#fff;fill-rule:nonzero;"/><path d="M1014.03,222.801c-1.54,-0.014 -2.998,-0.712 -3.975,-1.903l-149.713,-178.809c-1.139,-1.351 -1.765,-3.062 -1.765,-4.828c0,-3.785 2.87,-7.004 6.629,-7.437l15.394,-1.903c0.708,-0.076 1.409,0.211 1.861,0.761l121.419,142.481c0.109,0.134 0.208,0.275 0.296,0.423c6.549,14.38 11.581,29.405 15.014,44.829c0.077,0.361 0.115,0.73 0.115,1.1c0,2.895 -2.379,5.28 -5.275,5.286Zm-150.431,-183.419l149.712,178.809c0.292,0.37 0.812,0.478 1.227,0.254c0.426,-0.205 0.655,-0.681 0.55,-1.142c-3.38,-15.008 -8.283,-29.632 -14.633,-43.645l-120.362,-141.381l-14.253,1.734c-1.192,0.167 -2.209,0.958 -2.664,2.072c-0.419,1.118 -0.209,2.378 0.55,3.299l-0.127,0Z" style="fill:#231f20;fill-rule:nonzero;"/><path d="M880.851,30.036l121.419,142.48c0,0 46.14,-55.571 36.752,-100.908c-9.389,-45.336 -50.285,-75.237 -95.495,-68.385c-45.21,6.851 -62.676,26.813 -62.676,26.813Z" style="fill:#fff;fill-rule:nonzero;"/><path d="M1002.27,174.631c-0.622,0 -1.213,-0.279 -1.607,-0.761l-121.419,-142.608c-0.674,-0.788 -0.674,-1.961 0,-2.749c0.719,-0.846 18.312,-20.638 63.86,-27.532c45.548,-6.893 88.263,23.176 97.99,70.077c9.516,45.802 -35.314,100.359 -37.217,102.685c-0.394,0.482 -0.984,0.762 -1.607,0.761l0,0.127Zm-118.416,-144.469l118.416,139.013c7.951,-10.234 42.884,-58.066 34.764,-97.271c-9.262,-44.66 -49.354,-73.376 -93.042,-66.736c-37.512,5.752 -55.444,20.512 -60.265,24.994l0.127,0Z" style="fill:#231f20;fill-rule:nonzero;"/><path d="M1007.43,136.188c-0.293,0.058 -0.595,0.058 -0.888,0c-0.742,-0.334 -1.222,-1.076 -1.222,-1.89c0,-0.312 0.071,-0.62 0.207,-0.902c12.19,-26.263 15.573,-55.777 9.642,-84.118c-0.047,-0.179 -0.07,-0.364 -0.07,-0.55c0,-1.198 0.986,-2.184 2.185,-2.184c0.992,0 1.865,0.675 2.114,1.635c6.36,29.291 2.881,59.879 -9.896,86.994c-0.443,0.701 -1.246,1.095 -2.072,1.015Z" style="fill:#d1d3d4;fill-rule:nonzero;"/><path d="M994.404,163.297l18.82,-16.24l12.983,14.463l-18.946,20.047l-12.857,-18.27Z" style="fill:#fff;fill-rule:nonzero;"/><path d="M1007.26,183.512c-0.626,-0.054 -1.198,-0.379 -1.565,-0.888l-12.688,-18.27c-0.619,-0.882 -0.451,-2.107 0.381,-2.791l18.439,-16.113c0.826,-0.78 2.134,-0.78 2.961,0l12.983,14.421c0.729,0.815 0.729,2.061 0,2.876l-18.947,20.046c-0.388,0.46 -0.962,0.723 -1.564,0.719Zm-10.024,-20.004l10.235,14.548l15.859,-16.916l-10.276,-11.461l-15.818,13.829Z" style="fill:#231f20;fill-rule:nonzero;"/><path d="M992.416,124.515c-0.293,0.058 -0.595,0.058 -0.888,0c-1.054,-0.477 -1.53,-1.735 -1.057,-2.791c12.979,-27.518 13.884,-59.246 2.495,-87.459c-0.489,-1.046 -0.055,-2.308 0.973,-2.834c0.29,-0.142 0.609,-0.216 0.932,-0.216c0.808,0 1.548,0.463 1.901,1.189c11.829,29.297 10.924,62.239 -2.495,90.842c-0.332,0.738 -1.053,1.229 -1.861,1.269Z" style="fill:#d1d3d4;fill-rule:nonzero;"/><path d="M132.288,324.259c-0.077,0.008 -0.155,0.012 -0.232,0.012c-1.167,0 -2.128,-0.96 -2.128,-2.127c0,-1.079 0.822,-1.996 1.895,-2.114c2.622,-0.55 264.831,-60.266 342.563,-280.563c0.377,-1.085 1.574,-1.674 2.664,-1.311c1.091,0.396 1.677,1.605 1.311,2.706c-78.324,222.581 -342.774,282.72 -345.438,283.354l-0.635,0.043Z" style="fill:#231f20;fill-rule:nonzero;"/><path d="M562.395,136.315c-2.82,0 -5.569,0 -8.247,0c-158.805,-5.625 -287.584,-93.38 -288.895,-94.269c-0.578,-0.383 -0.926,-1.033 -0.926,-1.726c0,-0.427 0.131,-0.843 0.377,-1.192c0.393,-0.58 1.05,-0.929 1.751,-0.929c0.432,0 0.854,0.132 1.209,0.379c1.269,0.889 129.074,87.925 286.611,93.507c123.237,4.23 204.734,-92.153 205.537,-93.041c0.761,-0.88 2.105,-0.994 3.003,-0.254c0.48,0.393 0.759,0.983 0.759,1.604c0,0.498 -0.179,0.98 -0.505,1.356c-0.804,0.762 -79.932,94.565 -200.674,94.565Z" style="fill:#231f20;fill-rule:nonzero;"/><path d="M724.541,175.054c-1.254,0.063 -2.51,0.063 -3.764,0c-24.445,-2.538 -42.292,-26.813 -51.215,-70.162c-4.176,-21.232 -6.315,-42.814 -6.386,-64.453c0,-1.16 0.954,-2.114 2.114,-2.114c1.167,0.023 2.115,0.989 2.115,2.157c0,1.226 -0.931,124.633 53.795,130.385c8.5,0.929 16.994,-1.917 23.218,-7.782c31.634,-28.335 32.522,-121.715 32.522,-122.646c0,-1.16 0.955,-2.114 2.115,-2.114c0,0 0,0 0,0c1.16,0 2.115,0.954 2.115,2.114c0,0.014 0,0.029 -0.001,0.043c0,3.89 -0.93,96.171 -33.833,125.733c-6.202,5.726 -14.354,8.887 -22.795,8.839Z" style="fill:#231f20;fill-rule:nonzero;"/></svg>